<svg width="30" height="30" viewBox="0 0 30 30" fill="none" xmlns="http://www.w3.org/2000/svg">
<path d="M13.2958 2.27795C13.9176 1.24464 15.4157 1.24464 16.0376 2.27795L19.1448 7.44116C19.3682 7.81238 19.7326 8.07713 20.1547 8.17488L26.0254 9.53455C27.2003 9.80666 27.6632 11.2314 26.8727 12.1421L22.9224 16.6928C22.6383 17.02 22.4992 17.4484 22.5366 17.88L23.0576 23.8836C23.1619 25.085 21.9499 25.9656 20.8395 25.4951L15.2908 23.1444C14.8919 22.9754 14.4415 22.9754 14.0425 23.1444L8.49384 25.4951C7.38338 25.9656 6.17142 25.085 6.27569 23.8836L6.79671 17.88C6.83418 17.4484 6.69499 17.02 6.41097 16.6928L2.46067 12.1421C1.6701 11.2314 2.13303 9.80666 3.30793 9.53455L9.17862 8.17488C9.60071 8.07713 9.96511 7.81238 10.1885 7.44116L13.2958 2.27795Z" fill="#E4A802" stroke="#E4A802" stroke-width="2"/>
</svg>
